<?xml version="1.0" standalone="no"?>
<!DOCTYPE svg PUBLIC "-//W3C//DTD SVG 20010904//EN"
 "http://www.w3.org/TR/2001/REC-SVG-20010904/DTD/svg10.dtd">
<svg version="1.0" xmlns="http://www.w3.org/2000/svg"
 width="90.000000pt" height="90.000000pt" viewBox="0 0 90.000000 90.000000"
 preserveAspectRatio="xMidYMid meet">

<g transform="translate(0.000000,90.000000) scale(0.100000,-0.100000)"
fill="#000000" stroke="none">
<path d="M133 505 c-49 -34 -37 -115 17 -115 40 0 70 32 70 73 0 55 -41 74
-87 42z m65 -31 c4 -28 -30 -69 -51 -61 -10 4 -17 17 -17 31 0 49 61 76 68 30z"/>
<path d="M597 503 c-3 -10 -8 -31 -12 -48 -3 -16 -8 -38 -11 -47 -5 -15 2 -18
40 -18 25 0 46 5 46 10 0 6 -14 10 -31 10 -24 0 -30 3 -25 16 3 9 6 18 6 20 0
2 11 4 25 4 14 0 25 5 25 10 0 6 -11 10 -25 10 -18 0 -23 4 -19 15 4 9 19 15
35 15 16 0 29 5 29 10 0 6 -18 10 -39 10 -29 0 -41 -5 -44 -17z"/>
<path d="M701 483 c-20 -71 -6 -97 46 -91 31 3 47 29 59 92 11 60 -18 41 -31
-20 -8 -40 -14 -50 -34 -52 -23 -4 -24 -3 -17 52 7 64 -7 76 -23 19z"/>
<path d="M255 477 c-11 -35 -25 -94 -25 -109 0 -26 17 -22 24 5 4 17 12 23 33
22 35 0 64 45 47 72 -13 20 -73 28 -79 10z m53 -34 c-4 -36 -38 -45 -38 -10 0
27 7 37 27 37 10 0 13 -9 11 -27z"/>
<path d="M382 483 c-21 -8 -33 -52 -21 -74 12 -23 59 -23 67 -1 3 9 -3 11 -22
6 -16 -4 -26 -2 -26 4 0 6 12 12 28 14 21 2 27 8 27 28 0 25 -24 36 -53 23z
m38 -23 c0 -5 -9 -10 -21 -10 -11 0 -17 5 -14 10 3 6 13 10 21 10 8 0 14 -4
14 -10z"/>
<path d="M476 481 c-2 -3 -7 -25 -11 -48 -8 -49 10 -61 21 -15 15 62 50 72 40
11 -5 -30 -3 -40 6 -37 17 6 29 70 17 85 -10 12 -67 15 -73 4z"/>
</g>
</svg>
